<svg id="Layer_1" data-name="Layer 1" xmlns="http://www.w3.org/2000/svg" viewBox="0 0 256 256"><defs><style>.cls-1{fill:#f24922;}.cls-2{fill:#fff;}</style></defs><title>icon</title><path class="cls-1" d="M16,71.78V184.22A13.55,13.55,0,0,0,22.85,196l98.3,56.22a13.82,13.82,0,0,0,13.7,0L233.15,196A13.55,13.55,0,0,0,240,184.22V71.78A13.55,13.55,0,0,0,233.15,60L134.85,3.81a13.81,13.81,0,0,0-13.7,0L22.85,60A13.55,13.55,0,0,0,16,71.78Z"/><path class="cls-2" d="M184,64H72a8,8,0,0,0-8,8V184a8,8,0,0,0,8,8H184a8,8,0,0,0,8-8V72A8,8,0,0,0,184,64ZM128,176H80V80h48Zm32-32H144v-8h16Zm16-16H144v-8h32Zm0-16H144V80h32Z"/></svg>